<svg width="10" height="10" viewBox="0 0 10 10" fill="none" xmlns="http://www.w3.org/2000/svg">
<path d="M9.61039 0.394737V0.526316H0.519481V0.394737H9.61039Z" fill="white"/>
<path d="M9.61039 9.47368V9.60526H0.519481V9.47368H9.61039Z" fill="white"/>
<path d="M9.61039 3.42105V3.55263H0.519481V3.42105H9.61039Z" fill="white"/>
<path d="M9.61039 6.44737V6.57895H0.519481V6.44737H9.61039Z" fill="white"/>
<path d="M0.519481 0.394737H0.649351V9.60526H0.519481V0.394737Z" fill="white"/>
<path d="M9.48052 0.394737H9.61039V9.60526H9.48052V0.394737Z" fill="white"/>
<path d="M3.50649 0.394737H3.63636V9.60526H3.50649V0.394737Z" fill="white"/>
<path d="M6.49351 0.394737H6.62338V9.60526H6.49351V0.394737Z" fill="white"/>
<path d="M1.03896 0.526316C1.03896 0.816992 0.806382 1.05263 0.519481 1.05263C0.232579 1.05263 0 0.816992 0 0.526316C0 0.23564 0.232579 0 0.519481 0C0.806382 0 1.03896 0.23564 1.03896 0.526316Z" fill="white"/>
<path d="M1.03896 9.47368C1.03896 9.76436 0.806382 10 0.519481 10C0.232579 10 0 9.76436 0 9.47368C0 9.18301 0.232579 8.94737 0.519481 8.94737C0.806382 8.94737 1.03896 9.18301 1.03896 9.47368Z" fill="white"/>
<path d="M10 9.47368C10 9.76436 9.76742 10 9.48052 10C9.19362 10 8.96104 9.76436 8.96104 9.47368C8.96104 9.18301 9.19362 8.94737 9.48052 8.94737C9.76742 8.94737 10 9.18301 10 9.47368Z" fill="white"/>
<path d="M5.58442 5C5.58442 5.29068 5.35184 5.52632 5.06494 5.52632C4.77803 5.52632 4.54545 5.29068 4.54545 5C4.54545 4.70932 4.77803 4.47368 5.06494 4.47368C5.35184 4.47368 5.58442 4.70932 5.58442 5Z" fill="white"/>
<path d="M4.02597 0.526316C4.02597 0.816992 3.79339 1.05263 3.50649 1.05263C3.21959 1.05263 2.98701 0.816992 2.98701 0.526316C2.98701 0.23564 3.21959 0 3.50649 0C3.79339 0 4.02597 0.23564 4.02597 0.526316Z" fill="white"/>
<path d="M7.01299 0.526316C7.01299 0.816992 6.78041 1.05263 6.49351 1.05263C6.20661 1.05263 5.97403 0.816992 5.97403 0.526316C5.97403 0.23564 6.20661 0 6.49351 0C6.78041 0 7.01299 0.23564 7.01299 0.526316Z" fill="white"/>
<path d="M10 0.526316C10 0.816992 9.76742 1.05263 9.48052 1.05263C9.19362 1.05263 8.96104 0.816992 8.96104 0.526316C8.96104 0.23564 9.19362 0 9.48052 0C9.76742 0 10 0.23564 10 0.526316Z" fill="white"/>
<path d="M0.5 3.5V0.5H3.5M0.5 3.5H9.5M0.5 3.5V6.5M9.5 3.5V0.5H6.5M9.5 3.5V6.5M9.5 6.5V9.5H6.5M9.5 6.5H0.5M0.5 6.5V9.5H3.5M3.5 9.5V0.5M3.5 9.5H6.5M3.5 0.5H6.5M6.5 0.5V9.5" stroke="white"/>
</svg>
